<svg xmlns="http://www.w3.org/2000/svg" viewBox="0 0 741 1075" role="img" aria-label="The Mentorine School mark">
  <defs>
    <radialGradient id="msGrad" cx="62%" cy="22%" r="95%">
      <stop offset="0%" stop-color="#79C24C"/>
      <stop offset="45%" stop-color="#2EA254"/>
      <stop offset="100%" stop-color="#0B8049"/>
    </radialGradient>
  </defs>
  <path d="M696.0,1072.5 L492.0,1072.5 L490.5,1009.0 L492.0,1006.5 L547.0,1006.5 L548.5,1005.0 L548.5,948.0 L547.0,946.5 L486.0,982.5 L407.0,1020.5 L372.0,1040.5 L369.0,1040.5 L322.0,1014.5 L266.0,988.5 L200.0,950.5 L199.5,1006.0 L255.5,1007.0 L255.0,1072.5 L50.5,1072.0 L50.5,1007.0 L108.5,1006.0 L108.5,884.0 L64.5,841.0 L43.5,815.0 L22.5,782.0 L9.5,754.0 L2.5,730.0 L1.5,695.0 L262.5,401.0 L158.0,297.5 L155.0,297.5 L8.5,464.0 L3.0,469.5 L1.5,469.0 L1.5,133.0 L101.5,132.0 L101.5,68.0 L44.0,67.5 L42.5,66.0 L43.0,2.5 L191.0,1.5 L197.5,13.0 L245.5,132.0 L248.0,133.5 L488.0,133.5 L537.5,13.0 L544.0,1.5 L688.0,1.5 L689.5,3.0 L689.5,66.0 L688.0,67.5 L631.5,68.0 L630.5,130.0 L632.0,132.5 L738.5,133.0 L738.5,727.0 L729.5,758.0 L710.5,795.0 L679.5,837.0 L637.5,880.0 L637.5,1005.0 L639.0,1006.5 L696.0,1006.5 L697.5,1008.0 L697.5,1071.0 L696.0,1072.5 Z M679.5,719.0 L684.5,692.0 L683.5,642.0 L304.0,263.5 L262.5,305.0 L262.5,308.0 L659.0,700.5 L679.5,719.0 Z M683.5,531.0 L684.5,463.0 L547.0,325.5 L545.0,325.5 L506.5,364.0 L503.5,369.0 L667.0,530.5 L683.5,531.0 Z M371.5,964.0 L471.0,914.5 L533.0,878.5 L560.0,860.5 L614.0,815.5 L645.5,781.0 L511.0,647.5 L309.0,451.5 L64.5,731.0 L75.5,756.0 L95.5,783.0 L125.0,813.5 L172.0,853.5 L213.0,882.5 L256.0,907.5 L371.5,964.0 Z" fill="url(#msGrad)" fill-rule="evenodd"/>
</svg>